<?xml version="1.0" encoding="UTF-8"?>
<!DOCTYPE svg PUBLIC "-//W3C//DTD SVG 1.1//EN" "http://www.w3.org/Graphics/SVG/1.1/DTD/svg11.dtd">
<!-- Creator: CorelDRAW X7 -->
<svg xmlns="http://www.w3.org/2000/svg" xml:space="preserve" width="512px" height="512px" version="1.1" style="shape-rendering:geometricPrecision; text-rendering:geometricPrecision; image-rendering:optimizeQuality; fill-rule:evenodd; clip-rule:evenodd"
viewBox="0 0 62340490 62340490"
 xmlns:xlink="http://www.w3.org/1999/xlink">
 <defs>
  <style type="text/css">
   <![CDATA[
    .fil0 {fill:none}
    .fil2 {fill:url(#id0)}
    .fil1 {fill:url(#id1)}
   ]]>
  </style>
  <linearGradient id="id0" gradientUnits="userSpaceOnUse" x1="1.9847e+007" y1="2.45858e+007" x2="4.24938e+007" y2="4.33474e+007">
   <stop offset="0" style="stop-opacity:1; stop-color:#1DC8DC"/>
   <stop offset="1" style="stop-opacity:1; stop-color:#1E83D3"/>
  </linearGradient>
  <linearGradient id="id1" gradientUnits="userSpaceOnUse" xlink:href="#id0" x1="1.60152e+007" y1="1.08168e+007" x2="4.63253e+007" y2="4.54115e+007">
  </linearGradient>
 </defs>
 <g id="Layer_x0020_1">
  <metadata id="CorelCorpID_0Corel-Layer"/>
  <rect class="fil0" x="4" y="2" width="62340483" height="62340483"/>
  <g id="_2705273034800">
   <path class="fil1" d="M32565727 12127037c4223378,305123 8066158,1983032 11083816,4590546l2995902 -2995901c544978,-545247 1428653,-545247 1973631,0 544979,544709 544979,1428653 0,1973363l-2996170 2996170c2607783,3017389 4285692,6860169 4590815,11083548l4237346 0c770597,0 1395616,625019 1395616,1395616 0,770866 -625019,1395617 -1395616,1395348l-4237346 0c-305123,4223378 -1983032,8066158 -4590815,11083816l2996170 2995902c544979,545247 544979,1428922 0,1973900 -544978,544978 -1428384,544710 -1973631,-269l-2995902 -2996170c-2262908,1955904 -4989947,3388318 -7993638,4111106l7039054 -7039053 -1075 -806c2949704,-2949167 4774534,-7022938 4774534,-11523774 0,-9001135 -7296904,-16298039 -16298039,-16298039 -9001404,0 -16298308,7296904 -16298308,16298039 0,4500836 1825099,8574339 4774803,11523505l-1074 1075 7039053 7039053c-3003691,-722788 -5730730,-2155202 -7993638,-4110837l-2996170 2996170c-544978,544978 -1428385,544978 -1973632,0 -544709,-544978 -544709,-1428653 269,-1973631l2996170 -2996171c-2607783,-3017389 -4285961,-6860169 -4591084,-11083547l-4237345 0c-770597,0 -1395348,-624751 -1395348,-1395617 0,-770597 624751,-1395616 1395348,-1395348l4237345 0c305123,-4223378 1983301,-8066158 4590815,-11083547l-2996170 -2996171c-544709,-544978 -544709,-1428922 0,-1973631 545247,-545247 1428654,-544978 1973632,0l2996170 2996170c3017389,-2607783 6860169,-4285692 11083548,-4590815l0 -4237345c0,-770866 624750,-1395617 1395616,-1395617 770597,0 1395348,624751 1395348,1395617l0 4237345z"/>
   <path class="fil2" d="M31170379 17668408c6163704,268 11362886,4130713 12980630,9774687 -6585129,5357652 -18715389,-5918746 -25532583,-1256485 1983301,-4989946 6855603,-8517934 12551953,-8518202zm13436434 12165445c43244,439689 65806,885556 65806,1336526 0,497705 -27128,988965 -79772,1472972 -6754881,6548600 -20113154,-6712174 -26859171,-136446 -43244,-439689 -65537,-885556 -65537,-1336526 0,-497974 27934,-989502 80578,-1473509 6755149,-6546451 20112348,6712174 26858096,136983zm-883944 6319758c-685184,1724376 -1715243,3274165 -3005302,4564224l-9547188 9547188 -9547188 -9547188c-1596256,-1596256 -2794187,-3590032 -3433710,-5819903 6585666,-5357921 18715926,5919015 25533388,1255679z"/>
  </g>
 </g>
</svg>
