<?xml version="1.0" encoding="UTF-8"?>
<!DOCTYPE svg PUBLIC "-//W3C//DTD SVG 1.1//EN" "http://www.w3.org/Graphics/SVG/1.1/DTD/svg11.dtd">
<!-- Creator: CorelDRAW X7 -->
<svg xmlns="http://www.w3.org/2000/svg" xml:space="preserve" width="192px" height="192px" version="1.1" style="shape-rendering:geometricPrecision; text-rendering:geometricPrecision; image-rendering:optimizeQuality; fill-rule:evenodd; clip-rule:evenodd"
viewBox="0 0 7235709 7235709"
 xmlns:xlink="http://www.w3.org/1999/xlink">
 <defs>
  <style type="text/css">
   <![CDATA[
    .fil0 {fill:none}
    .fil1 {fill:#4BA2F2}
    .fil2 {fill:white}
   ]]>
  </style>
    <clipPath id="id0">
     <path d="M741509 740663l5842692 0 0 5842693 -5842692 0 0 -5842693z"/>
    </clipPath>
 </defs>
 <g id="Layer_x0020_1">
  <metadata id="CorelCorpID_0Corel-Layer"/>
  <rect class="fil0" width="7235709" height="7235709"/>
  <g id="_2705273012528">
   <g style="clip-path:url(#id0)">
    <image x="741509" y="740663" width="5842693" height="5842693" xlink:href="seamapdroid-icon_Images\seamapdroid-icon_ImgID1.png"/>
   </g>
  </g>
  <rect class="fil1" x="753727" y="753727" width="5728255" height="5728255" rx="452266" ry="452266"/>
  <g id="_2705273013488">
   <path class="fil2" d="M3742174 2170223c376207,27196 718452,176664 987209,408923l266888 -266888c48517,-48517 127213,-48517 175774,0 48517,48561 48517,127257 0,175774l-266888 266888c232303,268757 381771,611002 408923,987209l377409 0c68636,0 124319,55639 124319,124275 0,68680 -55683,124319 -124319,124319l-377409 0c-27152,376163 -176620,718452 -408878,987210l266843 266843c48517,48562 48517,127257 0,175819 -48561,48517 -127212,48517 -175774,-45l-266888 -266843c-201546,174216 -444442,301784 -711953,366192l626937 -626982 -44 -89c262704,-262660 425258,-625513 425258,-1026424 0,-801732 -649950,-1451637 -1451682,-1451637 -801732,0 -1451682,649905 -1451682,1451637 0,400911 162554,763720 425258,1026424l-89 89 626982 626982c-267555,-64408 -510407,-191976 -711998,-366192l-266843 266888c-48562,48517 -127257,48517 -175774,0 -48562,-48562 -48562,-127257 0,-175774l266843 -266888c-232258,-268758 -381726,-611003 -408878,-987210l-377453 0c-68636,0 -124275,-55639 -124275,-124319 0,-68636 55639,-124275 124275,-124275l377453 0c27152,-376162 176620,-718452 408878,-987209l-266843 -266844c-48562,-48561 -48562,-127257 0,-175818 48517,-48517 127212,-48517 175774,44l266843 266844c268758,-232259 611047,-381727 987210,-408923l0 -377409c0,-68636 55683,-124319 124319,-124319 68636,0 124275,55683 124275,124319l0 377409z"/>
   <path class="fil2" d="M3617899 2663806c548999,0 1012091,367928 1156173,870635 -586521,477202 -1666981,-527188 -2274156,-111945 176620,-444443 610602,-758690 1117983,-758690zm1196767 1083576c3873,39169 5876,78873 5876,119022 0,44333 -2404,88087 -7122,131218 -601655,583273 -1791479,-597827 -2392333,-12151 -3828,-39170 -5831,-78874 -5831,-119067 0,-44333 2493,-88132 7166,-131219 601700,-583094 1791390,597828 2392244,12197zm-78740 562886c-61024,153607 -152761,291636 -267644,406519l-850383 850382 -850383 -850382c-142168,-142168 -248861,-319723 -305790,-518375 586566,-477203 1666981,527232 2274200,111856z"/>
  </g>
 </g>
</svg>
