<?xml version="1.0" encoding="UTF-8"?>
<!DOCTYPE svg PUBLIC "-//W3C//DTD SVG 1.1//EN" "http://www.w3.org/Graphics/SVG/1.1/DTD/svg11.dtd">
<!-- Creator: CorelDRAW X7 -->
<svg xmlns="http://www.w3.org/2000/svg" xml:space="preserve" width="682px" height="256px" version="1.1" style="shape-rendering:geometricPrecision; text-rendering:geometricPrecision; image-rendering:optimizeQuality; fill-rule:evenodd; clip-rule:evenodd"
viewBox="0 0 43436058 16277726"
 xmlns:xlink="http://www.w3.org/1999/xlink">
 <defs>
  <style type="text/css">
   <![CDATA[
    .fil2 {fill:#1E83D3;fill-rule:nonzero}
    .fil0 {fill:url(#id0)}
    .fil1 {fill:url(#id1)}
   ]]>
  </style>
  <linearGradient id="id0" gradientUnits="userSpaceOnUse" x1="3.54083e+006" y1="1.6075e+006" x2="1.48127e+007" y2="1.44728e+007">
   <stop offset="0" style="stop-opacity:1; stop-color:#1DC8DC"/>
   <stop offset="1" style="stop-opacity:1; stop-color:#1E83D3"/>
  </linearGradient>
  <linearGradient id="id1" gradientUnits="userSpaceOnUse" xlink:href="#id0" x1="4.96573e+006" y1="6.72806e+006" x2="1.33878e+007" y2="1.37052e+007">
  </linearGradient>
 </defs>
 <g id="Layer_x0020_1">
  <metadata id="CorelCorpID_0Corel-Layer"/>
  <g id="_1911116784912">
   <g>
    <path class="fil0" d="M9695731 2094784c1570597,113455 2999667,737489 4121838,1707222l1114202 -1114203c202638,-202699 531235,-202699 733935,0 202638,202638 202638,531297 -62,733874l-1114202 1114263c969794,1122110 1593828,2551179 1707283,4121838l1575808 0c286610,0 518976,232366 518976,518976 0,286611 -232366,518977 -518976,518916l-1575808 0c-113455,1570597 -737489,2999667 -1707222,4121837l1114203 1114203c202638,202699 202638,531358 0,733996 -202700,202699 -531236,202638 -733935,-62l-1114202 -1114202c-841506,727315 -1855676,1260021 -2972698,1528856l2617683 -2617744 -307 -307c1096918,-1096733 1775565,-2611737 1775565,-4285493 0,-3347449 -2713608,-6061057 -6061058,-6061057 -3347449,0 -6061057,2713608 -6061057,6061057 0,1673756 678708,3188698 1775626,4285432l-368 368 2617683 2617744c-1117022,-268835 -2131131,-801541 -2972698,-1528795l-1114202 1114203c-202638,202699 -531235,202699 -733935,0 -202638,-202638 -202638,-531297 62,-733874l1114202 -1114263c-969794,-1122110 -1593828,-2551179 -1707283,-4121838l-1575808 0c-286610,0 -518976,-232366 -518976,-518977 0,-286610 232366,-518976 518976,-518915l1575808 0c113455,-1570597 737489,-2999667 1707222,-4121837l-1114203 -1114203c-202638,-202699 -202638,-531358 0,-733996 202700,-202699 531236,-202638 733935,62l1114202 1114202c1122110,-969794 2551241,-1593828 4121838,-1707283l0 -1575808c0,-286610 232366,-518976 518976,-518976 286611,0 518977,232366 518977,518976l0 1575808z"/>
    <path class="fil1" d="M9176754 4155550c2292212,61 4225670,1536150 4827332,3635041 -2448940,1992484 -6959995,-2201068 -9495176,-467245 737550,-1855676 2549462,-3167735 4667844,-3167796zm4996810 4524171c16121,163533 24457,329272 24457,497033 0,185108 -10053,367765 -29605,547724 -2512074,2435394 -7479830,-2496076 -9988533,-50690 -16059,-163533 -24333,-329333 -24333,-497034 0,-185230 10358,-368009 29911,-548029 2512196,-2434537 7479462,2496198 9988103,50996zm-328719 2350196c-254800,641320 -637826,1217606 -1117574,1697354l-3550517 3550455 -3550455 -3550455c-593571,-593571 -1039117,-1335045 -1276876,-2164353 2449063,-1992484 6960179,2201252 9495422,466999z"/>
   </g>
   <path class="fil2" d="M24359525 7892093c-133621,0 -238986,31751 -316032,95129 -77047,63378 -115662,147228 -115662,251673 0,104629 47196,187682 141405,249405 94148,61662 311680,134418 652597,218329 340979,83973 605646,209871 794126,377694 188356,168007 282504,412938 282504,735099 0,321978 -120811,583151 -362248,783583 -241498,200431 -559369,300708 -953367,300708 -568747,0 -1080858,-210729 -1536579,-632248l477909 -585786c387194,339139 745213,508801 1074116,508801 147351,0 263013,-31750 346924,-95128 83973,-63317 125898,-149006 125898,-256822 0,-108000 -44499,-193689 -133743,-257067 -88999,-63439 -265465,-127614 -529213,-192647 -417964,-99480 -723759,-228749 -917265,-388053 -193689,-159364 -290411,-409505 -290411,-750483 0,-340734 122343,-603746 367458,-788793 244931,-184863 550727,-277417 917326,-277417 239843,0 479564,41067 719469,123385 239844,82134 448795,198593 626976,349376l-406072 585910c-311742,-236411 -633719,-354648 -966116,-354648zm-143919 4752186c640706,0 1132346,156729 1474979,470247 342634,313458 513950,749381 513950,1307953 0,558389 -167087,1000380 -501139,1325912 -333991,325410 -843590,488084 -1528918,488084l-1228209 0 0 -3592196 1269337 0zm41129 2883147c366538,0 648429,-92615 845489,-277539 196938,-185047 295498,-454066 295498,-806874 0,-352931 -98560,-624402 -295498,-814720 -197060,-189950 -499424,-285140 -907090,-285140l-447140 0 0 2184273 508741 0zm4018925 -1377337c-229608,0 -400863,81398 -514012,244072 -113026,162736 -169539,377755 -169539,644936l0 1197378 -770956 0 0 -2764788 770956 0 0 364944c99358,-113087 223478,-209074 372606,-287836 149006,-78886 300647,-119953 454802,-123385l5149 724679 -149006 0zm1233358 704084c0,226175 64297,410302 192769,552382 128473,142324 292924,213303 493172,213303 200554,0 365006,-70979 493478,-213303 128472,-142080 192708,-326207 192708,-552382 0,-226114 -64236,-411160 -192708,-555017 -128472,-143919 -292924,-215878 -493478,-215878 -200248,0 -364699,71959 -493172,215878 -128472,143857 -192769,328903 -192769,555017zm2148109 0c0,400863 -138769,738286 -416186,1012393 -277539,274107 -626179,411160 -1045982,411160 -419496,0 -768136,-137053 -1045614,-411160 -277601,-274107 -416309,-611530 -416309,-1012393 0,-400985 138708,-739206 416309,-1014967 277478,-275885 626118,-413796 1045614,-413796 419803,0 768443,137911 1045982,413796 277417,275761 416186,613982 416186,1014967zm1341358 1382302l-770833 0 0 -2764788 770833 0 0 2764788zm-706597 -3116861c-87466,-87344 -131046,-194302 -131046,-321119 0,-126879 43580,-233837 131046,-321304 87405,-87344 194425,-130985 321242,-130985 126695,0 233837,43641 321119,130985 87344,87467 131047,194425 131047,321304 0,126817 -43703,233775 -131047,321119 -87282,87466 -194424,131108 -321119,131108 -126817,0 -233837,-43642 -321242,-131108zm2543947 3158112c-327188,0 -619376,-138831 -876321,-416309 -256883,-277539 -385478,-621766 -385478,-1032988 0,-411160 125163,-747786 375242,-1009818 250141,-262216 543004,-393201 878833,-393201 335708,0 609815,118175 822260,354524l0 -1356681 770894 0 0 3813222 -770894 0 0 -364699c-215878,270552 -487288,405950 -814536,405950zm-485633 -1418466c0,222681 66749,405215 200432,547295 133559,142324 289491,213303 467611,213303 178121,0 329701,-70979 454802,-213303 124917,-142080 187560,-325410 187560,-549869 0,-224336 -62643,-411038 -187560,-560166 -125101,-149006 -278397,-223600 -459950,-223600 -181553,0 -337485,75391 -467673,226236 -130189,150599 -195222,337362 -195222,560104zm-5550417 -4397538c-311680,294579 -677421,441991 -1097163,441991 -419802,0 -766604,-129392 -1040649,-388052 -274230,-258722 -411161,-605646 -411161,-1040711 0,-435126 139506,-781131 418822,-1038137 279194,-256883 609018,-385416 989286,-385416 380206,0 703164,114803 968751,344349 265587,229608 398289,544781 398289,945644l0 411160 -2014550 0c23966,150661 102728,273985 236349,369910 133683,95986 284405,143918 452289,143918 270674,0 493294,-90776 668043,-272391l431694 467735zm-554956 -1259163c-17162,-164513 -78763,-291208 -185047,-380268 -106283,-89121 -235614,-133559 -388052,-133559 -152438,0 -292005,46215 -418822,138708 -126756,92554 -200370,217655 -221026,375119l1212947 0zm3684689 1659903l-724556 0 0 -333991c-198777,250141 -444627,375242 -737551,375242 -292924,0 -538836,-84892 -737367,-254370 -198777,-169723 -298195,-395775 -298195,-678402 0,-282627 102912,-494275 308431,-634761 205703,-140424 486429,-210606 842793,-210606l575550 0 0 -15446c0,-294702 -155809,-442052 -467673,-442052 -133621,0 -274904,26601 -423971,79682 -148944,53142 -274903,119094 -377755,197857l-344227 -498382c363106,-263932 777699,-395836 1243656,-395836 335768,0 609875,83972 822259,251857 212445,167945 318606,433410 318606,796576l0 1762632zm-775982 -1053460l0 -133560 -483119 0c-308309,0 -462525,95864 -462525,287776 0,99357 36838,175607 110574,228749 73737,52958 178918,79498 316032,79498 137115,0 257742,-41925 362309,-125836 104506,-83973 156729,-196202 156729,-336627zm4774251 -1207737l-971265 1963186 -477970 0 -966178 -1963186 0 2261197 -801603 0 0 -3592196 1084291 0 925049 1973422 930260 -1973422 1079203 0 0 3592196 -801787 0 0 -2261197zm3957202 2261197l-724617 0 0 -333991c-198777,250141 -444688,375242 -737551,375242 -292863,0 -538774,-84892 -737367,-254370 -198838,-169723 -298134,-395775 -298134,-678402 0,-282627 102729,-494275 308370,-634761 205519,-140424 486491,-210606 842854,-210606l575489 0 0 -15446c0,-294702 -155870,-442052 -467673,-442052 -133559,0 -274842,26601 -423970,79682 -149006,53142 -274904,119094 -377755,197857l-344166 -498382c363105,-263932 777698,-395836 1243594,-395836 335830,0 609875,83972 822259,251857 212445,167945 318667,433410 318667,796576l0 1762632zm-776104 -1053460l0 -133560 -482997 0c-308309,0 -462525,95864 -462525,287776 0,99357 36838,175607 110514,228749 73614,52958 178978,79498 315909,79498 137176,0 257925,-41925 362370,-125836 104506,-83973 156729,-196202 156729,-336627zm3088666 -1757605c321977,0 609017,134540 860874,403498 251796,268835 377633,607178 377633,1014967 0,407667 -125837,748584 -377633,1022691 -251857,274107 -546436,411160 -883982,411160 -337485,0 -609017,-135398 -814536,-405950l0 1361769 -770833 0 0 -3761858 770833 0 0 308247c236411,-236350 515605,-354524 837644,-354524zm-848003 1431276c0,224458 62582,407789 187621,549868 125163,142325 276681,213304 454802,213304 178243,0 334175,-70979 467734,-213304 133560,-142079 200432,-324613 200432,-547294 0,-222742 -65094,-409505 -195283,-560104 -130188,-150845 -286059,-226237 -467734,-226237 -181553,0 -334788,74595 -459951,223601 -125039,149128 -187621,335830 -187621,560166z"/>
  </g>
 </g>
</svg>
