<?xml version="1.0" encoding="UTF-8"?>
<!DOCTYPE svg PUBLIC "-//W3C//DTD SVG 1.1//EN" "http://www.w3.org/Graphics/SVG/1.1/DTD/svg11.dtd">
<!-- Creator: CorelDRAW X7 -->
<svg xmlns="http://www.w3.org/2000/svg" xml:space="preserve" width="904px" height="256px" version="1.1" style="shape-rendering:geometricPrecision; text-rendering:geometricPrecision; image-rendering:optimizeQuality; fill-rule:evenodd; clip-rule:evenodd"
viewBox="0 0 76301461 21576341"
 xmlns:xlink="http://www.w3.org/1999/xlink">
 <defs>
  <style type="text/css">
   <![CDATA[
    .fil2 {fill:#1E83D3;fill-rule:nonzero}
    .fil0 {fill:url(#id0)}
    .fil1 {fill:url(#id1)}
   ]]>
  </style>
  <linearGradient id="id0" gradientUnits="userSpaceOnUse" x1="4.69342e+006" y1="2.13076e+006" x2="1.96344e+007" y2="1.91839e+007">
   <stop offset="0" style="stop-opacity:1; stop-color:#1DC8DC"/>
   <stop offset="1" style="stop-opacity:1; stop-color:#1E83D3"/>
  </linearGradient>
  <linearGradient id="id1" gradientUnits="userSpaceOnUse" xlink:href="#id0" x1="6.58215e+006" y1="8.91813e+006" x2="1.77458e+007" y2="1.81664e+007">
  </linearGradient>
 </defs>
 <g id="Layer_x0020_1">
  <metadata id="CorelCorpID_0Corel-Layer"/>
  <g id="_1911191274608">
   <path class="fil0" d="M12851819 2776664c2081848,150386 3976099,977552 5463551,2262945l1476890 -1476890c268599,-268681 704159,-268681 972839,0 268600,268599 268600,704240 -81,972758l-1476890 1476972c1285475,1487370 2112640,3381621 2263027,5463550l2088753 0c379907,0 687910,308004 687910,687910 0,379907 -308003,687910 -687910,687829l-2088753 0c-150387,2081848 -977552,3976098 -2262946,5463550l1476890 1476890c268600,268681 268600,704322 0,972921 -268680,268681 -704159,268600 -972839,-81l-1476890 -1476890c-1115427,964065 -2459723,1670174 -3940351,2026519l3469774 -3469854 -406 -406c1453978,-1453735 2353534,-3461893 2353534,-5680478 0,-4437088 -3596923,-8034012 -8034012,-8034012 -4437088,0 -8034012,3596924 -8034012,8034012 0,2218585 899637,4226661 2353616,5680396l-487 488 3469773 3469854c-1480627,-356345 -2824843,-1062454 -3940350,-2026438l-1476890 1476890c-268600,268681 -704160,268681 -972840,0 -268599,-268599 -268599,-704240 81,-972758l1476890 -1476971c-1285474,-1487371 -2112640,-3381622 -2263026,-5463551l-2088754 0c-379906,0 -687910,-308003 -687910,-687910 0,-379906 308004,-687910 687910,-687829l2088754 0c150386,-2081847 977552,-3976098 2262945,-5463550l-1476890 -1476890c-268599,-268681 -268599,-704322 0,-972921 268680,-268681 704159,-268599 972840,81l1476890 1476890c1487370,-1285474 3381702,-2112640 5463550,-2263026l0 -2088754c0,-379906 308004,-687910 687910,-687910 379907,0 687910,308004 687910,687910l0 2088754z"/>
   <path class="fil1" d="M12163909 5508236c3038357,81 5601181,2036187 6398692,4818295 -3246103,2641064 -9225566,-2917545 -12585982,-619339 977633,-2459723 3379347,-4198875 6187290,-4198956zm6623338 5996849c21367,216765 32417,436454 32417,658824 0,245363 -13325,487476 -39242,726015 -3329787,3228147 -9914613,-3308582 -13239931,-67191 -21287,-216764 -32255,-436535 -32255,-658824 0,-245525 13730,-487801 39648,-726420 3329949,-3227011 9914126,3308743 13239363,67596zm-435723 3115216c-337739,850077 -845446,1613952 -1481358,2249865l-4706257 4706175 -4706175 -4706175c-786786,-786787 -1377364,-1769620 -1692517,-2868878 3246266,-2641064 9225810,2917788 12586307,619013z"/>
  </g>
  <path class="fil2" d="M32288871 10144133c-177116,0 -316778,42086 -418985,126094 -102127,83927 -153230,195234 -153230,333677 0,138606 62478,248695 187353,330428 124875,81815 413217,178254 865107,289480 451891,111307 802711,278186 1052543,500719 249750,222533 374625,547273 374625,974139 0,426867 -160055,773137 -480245,1038812 -320191,265674 -741370,398512 -1263701,398512 -753800,0 -1432773,-279243 -2036756,-837891l633556 -776549c513150,449616 987708,674342 1423674,674342 195316,0 348627,-42004 459771,-125931 111307,-84009 166961,-197591 166961,-340584 0,-143074 -59066,-256656 -177198,-340664 -117969,-84009 -351876,-169154 -701559,-255438 -554016,-131699 -959353,-303128 -1215928,-514287 -256575,-211239 -384943,-542723 -384943,-994614 0,-451890 162410,-800435 487151,-1045636 324659,-245200 729914,-367882 1215928,-367882 317834,0 635750,54516 953665,163549 317835,109032 594884,263399 831066,463183l-538174 776549c-413298,-313284 -840084,-470008 -1280681,-470008zm5885624 3406077c-413217,390468 -898012,585784 -1454304,585784 -556372,0 -1016144,-171348 -1379476,-514288 -363332,-342939 -544998,-802710 -544998,-1379394 0,-576847 185078,-1035481 555235,-1376064 370157,-340583 807261,-510956 1311311,-510956 504050,0 932054,152173 1284093,456440 351877,304266 527937,722114 527937,1253463l0 544917 -2670394 0c31848,199784 136249,363332 313447,490482 177035,127150 376900,190766 599352,190766 358863,0 653949,-120407 885581,-361138l572216 619988zm-735683 -1668956c-22667,-218064 -104401,-386000 -245200,-504131 -140800,-118051 -312229,-177117 -514287,-177117 -202141,0 -387138,61341 -555236,183941 -168016,122601 -265674,288343 -292892,497307l1607615 0zm4884185 2200224l-960490 0 0 -442710c-263399,331484 -589196,497226 -977552,497226 -388275,0 -714071,-112445 -977471,-337171 -263399,-224808 -395099,-524525 -395099,-899231 0,-374626 136250,-655087 408749,-841221 272499,-186216 644849,-279324 1117132,-279324l762982 0 0 -20393c0,-390631 -206609,-585865 -619907,-585865 -177117,0 -364389,35180 -561979,105620 -197590,70278 -364388,157780 -500719,262181l-456359 -660693c481382,-349764 1030931,-524605 1648481,-524605 445066,0 808317,111307 1089916,333840 281517,222532 422316,574490 422316,1055873l0 2336473zm-1028574 -1396457l0 -177116 -640300 0c-408749,0 -613082,127150 -613082,381450 0,131700 48829,232770 146405,303210 97739,70359 237320,105538 418986,105538 181666,0 341720,-55572 480245,-166879 138524,-111226 207746,-259987 207746,-446203zm6328414 -1600790l-1287505 2602147 -633475 0 -1280763 -2602147 0 2997247 -1062697 0 0 -4761585 1437404 0 1226165 2615877 1232989 -2615877 1430499 0 0 4761585 -1062617 0 0 -2997247zm5245162 2997247l-960491 0 0 -442710c-263399,331484 -589196,497226 -977552,497226 -388274,0 -714071,-112445 -977471,-337171 -263399,-224808 -395099,-524525 -395099,-899231 0,-374626 136250,-655087 408749,-841221 272499,-186216 644849,-279324 1117132,-279324l762982 0 0 -20393c0,-390631 -206609,-585865 -619907,-585865 -177117,0 -364389,35180 -561979,105620 -197590,70278 -364470,157780 -500719,262181l-456359 -660693c481383,-349764 1030931,-524605 1648482,-524605 445065,0 808316,111307 1089915,333840 281517,222532 422317,574490 422317,1055873l0 2336473zm-1028575 -1396457l0 -177116 -640300 0c-408748,0 -613082,127150 -613082,381450 0,131700 48829,232770 146405,303210 97658,70359 237320,105538 418986,105538 181666,0 341721,-55572 480245,-166879 138524,-111226 207746,-259987 207746,-446203zm4093987 -2329729c426947,0 807260,178335 1141100,534842 333758,356426 500638,804904 500638,1345272 0,540448 -166880,992338 -500638,1355671 -333840,363332 -724390,544917 -1171730,544917 -447341,0 -807179,-179310 -1079760,-538093l0 1805124 -1021749 0 0 -4986393 1021749 0 0 408749c313447,-313447 683523,-470089 1110390,-470089zm-1123958 1897175c0,297442 82871,540449 248613,728858 165823,188572 366745,282736 602846,282736 236263,0 442872,-94164 619907,-282736 177116,-188409 265674,-430279 265674,-725445 0,-295248 -86202,-542724 -258769,-742508 -172647,-199784 -379256,-299716 -619988,-299716 -240569,0 -443847,98795 -609670,296304 -165742,197590 -248613,445066 -248613,742507zm5313408 -2932574c849184,0 1500858,207746 1955104,623319 454084,415492 681086,993395 681086,1733709 0,740151 -221315,1326016 -664105,1757513 -442791,431417 -1118270,647044 -2026601,647044l-1628089 0 0 -4761585 1682605 0zm54435 3821568c485932,0 859502,-122600 1120626,-367882 261125,-245200 391687,-601708 391687,-1069522 0,-467734 -130562,-827653 -391687,-1079679 -261124,-252025 -661911,-378118 -1202359,-378118l-592690 0 0 2895201 674423 0zm5327057 -1825679c-304266,0 -531349,107895 -681247,323603 -149818,215708 -224808,500719 -224808,854952l0 1587141 -1021750 0 0 -3664846 1021750 0 0 483739c131700,-149899 296385,-277130 493976,-381531 197509,-104482 398511,-158917 602845,-163548l6743 960490 -197509 0zm1634914 933354c0,299636 85146,543780 255437,732189 170292,188572 388275,282736 653949,282736 265675,0 483658,-94164 653950,-282736 170291,-188409 255437,-432553 255437,-732189 0,-299798 -85146,-545079 -255437,-735764 -170292,-190684 -388275,-286067 -653950,-286067 -265674,0 -483657,95383 -653949,286067 -170291,190685 -255437,435966 -255437,735764zm2847429 0c0,531349 -183941,978608 -551823,1341941 -367801,363332 -829847,544917 -1386220,544917 -556291,0 -1018337,-181585 -1386219,-544917 -367801,-363333 -551742,-810592 -551742,-1341941 0,-531349 183941,-979827 551742,-1345434 367882,-365607 829928,-548410 1386219,-548410 556373,0 1018419,182803 1386220,548410 367882,365607 551823,814085 551823,1345434zm1777906 1832342l-1021750 0 0 -3664846 1021750 0 0 3664846zm-936604 -4131523c-115857,-115775 -173704,-257712 -173704,-425648 0,-168098 57847,-310034 173704,-425810 115776,-115775 257713,-173704 425729,-173704 168098,0 309954,57929 425729,173704 115857,115776 173786,257712 173786,425810 0,167936 -57929,309873 -173786,425648 -115775,115857 -257631,173704 -425729,173704 -168016,0 -309953,-57847 -425729,-173704zm3371953 4186039c-433609,0 -820828,-183941 -1161493,-551823 -340502,-367801 -510874,-824160 -510874,-1369158 0,-544917 165823,-991201 497306,-1338609 331484,-347408 719840,-521112 1164824,-521112 445147,0 808398,156642 1089997,470089l0 -1798380 1021750 0 0 5054477 -1021750 0 0 -483577c-286148,358783 -645987,538093 -1079760,538093zm-643712 -1880114c0,295166 88558,537036 265675,725445 177035,188572 383806,282736 619907,282736 236101,0 437103,-94164 602845,-282736 165742,-188409 248613,-431416 248613,-728858 0,-297441 -82871,-544917 -248613,-742507 -165742,-197509 -368938,-296304 -609670,-296304 -240651,0 -447340,99932 -619907,299716 -172566,199784 -258850,447260 -258850,742508z"/>
 </g>
</svg>
