<?xml version="1.0" encoding="UTF-8"?>
<!DOCTYPE svg PUBLIC "-//W3C//DTD SVG 1.1//EN" "http://www.w3.org/Graphics/SVG/1.1/DTD/svg11.dtd">
<!-- Creator: CorelDRAW X7 -->
<svg xmlns="http://www.w3.org/2000/svg" xml:space="preserve" width="512px" height="512px" version="1.1" style="shape-rendering:geometricPrecision; text-rendering:geometricPrecision; image-rendering:optimizeQuality; fill-rule:evenodd; clip-rule:evenodd"
viewBox="0 0 32093717 32093717"
 xmlns:xlink="http://www.w3.org/1999/xlink">
 <defs>
  <style type="text/css">
   <![CDATA[
    .fil0 {fill:none}
    .fil3 {fill:#1E83D3;fill-rule:nonzero}
    .fil1 {fill:url(#id0)}
    .fil2 {fill:url(#id1)}
   ]]>
  </style>
  <linearGradient id="id0" gradientUnits="userSpaceOnUse" x1="1.11215e+007" y1="7.24774e+006" x2="2.09719e+007" y2="1.84908e+007">
   <stop offset="0" style="stop-opacity:1; stop-color:#1DC8DC"/>
   <stop offset="1" style="stop-opacity:1; stop-color:#1E83D3"/>
  </linearGradient>
  <linearGradient id="id1" gradientUnits="userSpaceOnUse" xlink:href="#id0" x1="1.23667e+007" y1="1.17226e+007" x2="1.97267e+007" y2="1.782e+007">
  </linearGradient>
 </defs>
 <g id="Layer_x0020_1">
  <metadata id="CorelCorpID_0Corel-Layer"/>
  <rect class="fil0" x="-13" y="-7" width="32093701" height="32093701"/>
  <g id="_2705273011120">
   <g>
    <path class="fil1" d="M16500334 7673625c1372528,99144 2621298,644505 3601951,1491998l973740 -973739c177131,-177132 464331,-177132 641462,0 176993,177131 176993,464331 -138,641324l-973740 973739c847632,980654 1392854,2229424 1491998,3602090l1377229 0c250418,0 453407,203127 453407,453545 0,250418 -202989,453545 -453407,453407l-1377229 0c-99144,1372665 -644366,2621436 -1491859,3602089l973739 973739c176993,177132 176993,464331 0,641463 -177131,177131 -464331,177131 -641462,0l-973740 -973740c-735351,635517 -1621562,1101092 -2597790,1336023l2287637 -2287638 -276 -277c958529,-958390 1551595,-2282383 1551595,-3745066 0,-2925367 -2371434,-5296800 -5296662,-5296800 -2925366,0 -5296800,2371433 -5296800,5296800 0,1462683 593066,2786537 1551734,3745066l-415 277 2287637 2287638c-976090,-234931 -1862439,-700506 -2597790,-1336023l-973740 973740c-177131,177131 -464192,177131 -641324,0 -177131,-177132 -177131,-464331 0,-641324l973740 -973740c-847494,-980653 -1392854,-2229562 -1491998,-3602089l-1377091 0c-250556,0 -453545,-203127 -453545,-453545 0,-250418 202989,-453545 453545,-453545l1377091 0c99144,-1372528 644504,-2621298 1491859,-3602090l-973601 -973601c-177131,-177131 -177131,-464331 0,-641462 177132,-177132 464193,-177132 641324,0l973740 973739c980515,-847493 2229562,-1392854 3602089,-1491998l0 -1377090c0,-250418 202989,-453545 453545,-453545 250418,0 453545,203127 453545,453545l0 1377090z"/>
    <path class="fil2" d="M16046789 9474532c2003066,0 3692798,1342383 4218524,3176614 -2140098,1741309 -6082346,-1923419 -8297804,-408329 644505,-1621562 2227903,-2768285 4079280,-2768285zm4366617 3953725c14104,142839 21433,287752 21433,434325 0,161783 -8850,321353 -25858,478711 -2195269,2128206 -6536720,-2181442 -8728947,-44386 -14104,-142839 -21295,-287753 -21295,-434325 0,-161921 8988,-321630 26134,-478988 2195408,-2127514 6536306,2181442 8728533,44663zm-287199 2053813c-222763,560433 -557390,1064034 -976643,1483286l-3102775 3102775 -3102775 -3102775c-518811,-518673 -908058,-1166634 -1115887,-1891477 2140236,-1741171 6082484,1923696 8298080,408191z"/>
   </g>
   <path class="fil3" d="M4996049 24444842c-92921,0 -166069,22125 -219720,66235 -53651,43971 -80338,102324 -80338,174919 0,72733 32771,130532 98175,173398 65543,42865 216817,93474 453822,151827 237005,58352 420912,145881 551998,262586 130947,116705 196490,287061 196490,510930 0,223869 -83933,405425 -251939,544807 -167867,139382 -388832,209073 -662756,209073 -395332,0 -751392,-146572 -1068182,-439441l332277 -407361c269085,235761 517982,353710 746690,353710 102463,0 182801,-21986 241153,-66096 58353,-44110 87529,-103568 87529,-178652 0,-74946 -30974,-134543 -92921,-178653 -61948,-43972 -184599,-88635 -367953,-133989 -290656,-69000 -503186,-158879 -637729,-269638 -134542,-110898 -201883,-284711 -201883,-521716 0,-237005 85178,-419806 255396,-548402 170356,-128597 382886,-192895 637729,-192895 166761,0 333522,28485 500283,85731 166622,57108 311950,138138 435845,242951l-282221 407223c-216817,-164272 -440685,-246547 -671745,-246547zm3086873 1786526c-216678,204787 -470968,307249 -762730,307249 -291762,0 -532916,-89879 -723460,-269776 -190544,-179897 -285816,-421050 -285816,-723460 0,-302548 97069,-543148 291209,-721801 194001,-178514 423263,-267978 687646,-267978 264384,0 488944,79923 673543,239494 184598,159570 276966,378737 276966,657364l0 285816 -1400597 0c16593,104813 71350,190544 164272,257193 92921,66788 197735,100112 314439,100112 188194,0 342925,-63192 464470,-189438l300058 325225zm-385790 -875425c-11891,-114354 -54757,-202436 -128596,-264384 -73840,-61809 -163719,-92783 -269777,-92783 -106057,0 -202989,32080 -291209,96378 -88082,64299 -139382,151274 -153625,260789l843207 0zm2561701 1154051l-503739 0 0 -232165c-138276,173813 -309047,260788 -512728,260788 -203680,0 -374589,-59043 -512727,-176855 -138138,-117949 -207137,-275169 -207137,-471659 0,-196490 71350,-343616 214327,-441239 142840,-97622 338224,-146434 585876,-146434l400170 0 0 -10785c0,-204787 -108408,-307250 -325086,-307250 -92922,0 -191098,18529 -294805,55449 -103568,36781 -191097,82689 -262586,137446l-239356 -346519c252492,-183354 540660,-275169 864640,-275169 233410,0 423954,58490 571633,175195 147679,116705 221518,301304 221518,553657l0 1225540zm-539553 -732448l0 -92921 -335734 0c-214466,0 -321630,66787 -321630,200085 0,69138 25581,122098 76882,159018 51162,36919 124448,55448 219720,55448 95272,0 179206,-29176 251801,-87528 72733,-58353 108961,-136479 108961,-234102zm3319177 -839611l-675202 1364784 -332277 0 -671745 -1364784 0 1572059 -557390 0 0 -2497402 753881 0 643121 1371974 646717 -1371974 750285 0 0 2497402 -557390 0 0 -1572059zm2751001 1572059l-503740 0 0 -232165c-138138,173813 -309047,260788 -512727,260788 -203681,0 -374590,-59043 -512589,-176855 -138276,-117949 -207276,-275169 -207276,-471659 0,-196490 71350,-343616 214328,-441239 142977,-97622 338223,-146434 585875,-146434l400171 0 0 -10785c0,-204787 -108270,-307250 -325087,-307250 -92921,0 -191097,18529 -294804,55449 -103569,36781 -191098,82689 -262586,137446l-239356 -346519c252492,-183354 540797,-275169 864640,-275169 233409,0 423954,58490 571632,175195 147679,116705 221519,301304 221519,553657l0 1225540zm-539553 -732448l0 -92921 -335734 0c-214328,0 -321630,66787 -321630,200085 0,69138 25719,122098 76881,159018 51162,36919 124448,55448 219721,55448 95272,0 179205,-29176 251938,-87528 72595,-58353 108824,-136479 108824,-234102zm2147287 -1221944c224007,0 423401,93612 598459,280561 175057,186950 262586,422157 262586,705623 0,283466 -87529,520471 -262586,711015 -175058,190544 -379844,285816 -614499,285816 -234654,0 -423401,-94166 -566240,-282221l0 946637 -535957 0 0 -2615213 535957 0 0 214328c164272,-164272 358412,-246546 582280,-246546zm-589470 995033c0,156114 43419,283466 130394,382334 86976,98867 192342,148231 316237,148231 123896,0 232166,-49364 325087,-148231 92922,-98868 139382,-225667 139382,-380536 0,-154731 -45216,-284572 -135787,-389385 -90571,-104813 -198841,-157220 -325087,-157220 -126246,0 -232856,51854 -319832,155422 -86975,103707 -130394,233410 -130394,389385zm2786814 -1538043c445387,0 787205,108961 1025316,326884 238250,217923 357305,521024 357305,909303 0,388279 -116151,695528 -348317,921748 -232303,226357 -586566,339467 -1062927,339467l-853854 0 0 -2497402 882477 0zm28485 2004310c254981,0 450779,-64298 587811,-192895 136893,-128597 205478,-315546 205478,-560986 0,-245301 -68585,-434048 -205478,-566240 -137032,-132192 -347211,-198287 -630677,-198287l-310844 0 0 1518408 353710 0zm2794004 -957423c-159570,0 -278764,56555 -357305,169665 -78541,113110 -117949,262586 -117949,448429l0 832421 -535820 0 0 -1922174 535820 0 0 253736c69138,-78679 155422,-145328 259129,-200085 103569,-54896 208935,-83381 316099,-85869l3595 503877 -103569 0zm857450 489497c0,157082 44663,285125 133989,383993 89326,98867 203681,148231 342924,148231 139383,0 253737,-49364 343063,-148231 89326,-98868 133990,-226911 133990,-383993 0,-157220 -44664,-285955 -133990,-385928 -89326,-99974 -203680,-150030 -343063,-150030 -139243,0 -253598,50056 -342924,150030 -89326,99973 -133989,228708 -133989,385928zm1493380 0c0,278626 -96378,513281 -289411,703825 -192895,190544 -435155,285816 -727056,285816 -291762,0 -534021,-95272 -726916,-285816 -193034,-190544 -289412,-425199 -289412,-703825 0,-278764 96378,-513972 289412,-705622 192895,-191789 435154,-287752 726916,-287752 291901,0 534161,95963 727056,287752 193033,191650 289411,426858 289411,705622zm932533 961018l-535957 0 0 -1922174 535957 0 0 1922174zm-491156 -2166923c-60841,-60703 -91124,-135095 -91124,-223315 0,-88082 30283,-162475 91124,-223316 60703,-60703 135096,-91124 223178,-91124 88220,0 162612,30421 223315,91124 60703,60841 91124,135234 91124,223316 0,88220 -30421,162612 -91124,223315 -60703,60704 -135095,91124 -223315,91124 -88082,0 -162475,-30420 -223178,-91124zm1768412 2195546c-227326,0 -430454,-96516 -609106,-289411 -178653,-193034 -267979,-432251 -267979,-718206 0,-285816 86976,-519779 260789,-702027 173951,-182248 377631,-273371 611041,-273371 233410,0 423954,82274 571633,246546l0 -943181 535958 0 0 2651027 -535958 0 0 -253598c-150029,188055 -338776,282221 -566378,282221zm-337532 -986184c0,154869 46461,281668 139244,380536 92921,98867 201330,148231 325225,148231 123757,0 229262,-49364 316099,-148231 86975,-98868 130394,-226220 130394,-382334 0,-155975 -43419,-285678 -130394,-389385 -86837,-103568 -193448,-155422 -319694,-155422 -126246,0 -234655,52407 -325225,157220 -90433,104813 -135649,234654 -135649,389385z"/>
  </g>
 </g>
</svg>
