<?xml version="1.0" encoding="UTF-8"?>
<!DOCTYPE svg PUBLIC "-//W3C//DTD SVG 1.1//EN" "http://www.w3.org/Graphics/SVG/1.1/DTD/svg11.dtd">
<!-- Creator: CorelDRAW X7 -->
<svg xmlns="http://www.w3.org/2000/svg" xml:space="preserve" width="1804px" height="512px" version="1.1" style="shape-rendering:geometricPrecision; text-rendering:geometricPrecision; image-rendering:optimizeQuality; fill-rule:evenodd; clip-rule:evenodd"
viewBox="0 0 38319965 10857650"
 xmlns:xlink="http://www.w3.org/1999/xlink">
 <defs>
  <style type="text/css">
   <![CDATA[
    .fil0 {fill:none}
    .fil3 {fill:#1E83D3;fill-rule:nonzero}
    .fil1 {fill:url(#id0)}
    .fil2 {fill:url(#id1)}
   ]]>
  </style>
  <linearGradient id="id0" gradientUnits="userSpaceOnUse" x1="3.2068e+006" y1="2.44452e+006" x2="7.65092e+006" y2="7.51679e+006">
   <stop offset="0" style="stop-opacity:1; stop-color:#1DC8DC"/>
   <stop offset="1" style="stop-opacity:1; stop-color:#1E83D3"/>
  </linearGradient>
  <linearGradient id="id1" gradientUnits="userSpaceOnUse" xlink:href="#id0" x1="3.76856e+006" y1="4.4634e+006" x2="7.08915e+006" y2="7.21423e+006">
  </linearGradient>
 </defs>
 <g id="Layer_x0020_1">
  <metadata id="CorelCorpID_0Corel-Layer"/>
  <rect class="fil0" y="10" width="38319965" height="10857624"/>
  <g id="_2705273045680">
   <path class="fil1" d="M5633476 2636666c619225,44730 1182679,290710 1625107,673063l439247 -439309c79914,-79914 209486,-79914 289400,0 79914,79914 79914,209486 0,289337l-439309 439372c382353,442366 628396,1005820 673125,1625045l621284 0c112978,0 204620,91642 204620,204620 0,113040 -91642,204620 -204620,204620l-621284 0c-44729,619225 -290772,1182679 -673125,1625107l439309 439309c79914,79914 79914,209486 0,289338 -79914,79914 -209423,79914 -289400,0l-439247 -439309c-331821,286780 -731641,496827 -1172073,602818l1032083 -1032084 -124 -124c432509,-432447 700075,-1029776 700075,-1689675 0,-1319737 -1069889,-2389625 -2389688,-2389625 -1319799,0 -2389687,1069888 -2389687,2389625 0,659899 267628,1257228 700075,1689612l-125 187 1032083 1032084c-440432,-105991 -840252,-316038 -1172073,-602756l-439309 439247c-79852,79914 -209424,79914 -289338,0 -79914,-79852 -79914,-209424 0,-289338l439309 -439309c-382352,-442366 -628395,-1005820 -673125,-1625107l-621284 0c-112977,0 -204620,-91580 -204620,-204620 0,-112978 91643,-204620 204620,-204558l621284 0c44730,-619225 290773,-1182679 673125,-1625107l-439309 -439309c-79914,-79914 -79914,-209486 0,-289400 79914,-79914 209424,-79852 289338,62l439309 439309c442428,-382415 1005882,-628395 1625107,-673125l0 -621346c0,-112978 91642,-204558 204620,-204558 112978,0 204620,91580 204620,204558l0 621346z"/>
   <path class="fil2" d="M5428856 3449157c903759,0 1666031,605626 1903278,1433152 -965582,785541 -2744091,-867826 -3743673,-184221 290835,-731641 1005196,-1248931 1840395,-1248931zm1970092 1783688c6363,64505 9607,129822 9607,195949 0,72989 -3930,145043 -11666,215974 -990411,960217 -2949024,-984110 -3938124,-19963 -6364,-64505 -9608,-129884 -9608,-196011 0,-72990 4118,-145043 11791,-216037 990473,-959842 2948899,984173 3938000,20088zm-129635 926592c-100438,252843 -251470,480108 -440619,669257l-1399838 1399776 -1399838 -1399776c-234003,-234065 -409677,-526397 -503440,-853353 965582,-785603 2744154,867889 3743735,184096z"/>
  </g>
  <path class="fil3" d="M11904893 4303134c-99004,0 -177046,23519 -234190,70494 -57082,46913 -85654,109110 -85654,186529 0,77481 34935,139054 104743,184719 69808,45728 231009,99628 483602,161825 252656,62259 448729,155524 588408,279918 139615,124394 209423,305931 209423,544613 0,238557 -89459,432198 -268501,580672 -178980,148537 -414418,222774 -706438,222774 -421343,0 -800951,-156085 -1138574,-468381l354155 -434131c286843,251346 552162,376988 795835,376988 109235,0 194888,-23457 257085,-70432 62197,-46913 93327,-110420 93327,-190397 0,-79976 -33002,-143483 -99066,-190396 -65940,-46975 -196698,-94574 -392210,-142797 -309674,-73676 -536316,-169436 -679737,-287529 -143421,-118031 -215163,-303374 -215163,-556030 0,-252593 90769,-447419 272307,-584477 181537,-137120 408054,-205681 679737,-205681 177733,0 355403,30444 533135,91393 177670,60950 332570,147289 464575,258957l-300816 434131c-231071,-175175 -469691,-262762 -715983,-262762zm3290265 1904089c-231009,218282 -502068,327455 -812990,327455 -311048,0 -568071,-95822 -771193,-287466 -203061,-191707 -304622,-448792 -304622,-771131 0,-322464 103433,-578863 310361,-769259 206928,-190396 451287,-285657 733076,-285657 281727,0 521033,85092 717792,255214 196760,170059 295140,403625 295140,700698l0 304622 -1492791 0c17780,111668 76171,203123 175175,274179 99004,71055 210734,106614 335128,106614 200565,0 365571,-67250 495018,-201813l319906 346544zm-411299 -932955c-12664,-121898 -58329,-215849 -137058,-281851 -78729,-66003 -174551,-99004 -287528,-99004 -112978,0 -216411,34249 -310362,102809 -93950,68560 -148536,161201 -163696,278046l898644 0zm2730430 1229966l-536941 0 0 -247478c-147226,185281 -329388,277922 -546485,277922 -217034,0 -399196,-62821 -546423,-188463 -147226,-125704 -220902,-293205 -220902,-502691 0,-209424 76171,-366195 228513,-470314 152342,-104057 360456,-156086 624528,-156086l426520 0 0 -11416c0,-218407 -115535,-327517 -346606,-327517 -98941,0 -203684,19651 -314167,59016 -110419,39302 -203684,88211 -279855,146602l-255151 -369376c269125,-195512 576305,-293268 921601,-293268 248788,0 451848,62259 609306,186653 157333,124394 236062,321154 236062,590217l0 1306199zm-575057 -780675l0 -99004 -357898 0c-228513,0 -342739,71056 -342739,213229 0,73676 27324,130134 81848,169498 54586,39364 132629,59015 234190,59015 101562,0 191083,-31067 268502,-93264 77418,-62259 116097,-145417 116097,-249474zm3537805 -894901l-719788 1454674 -354155 0 -715921 -1454674 0 1675576 -594084 0 0 -2661869 803570 0 685415 1462347 689282 -1462347 799703 0 0 2661869 -594022 0 0 -1675576zm2932180 1675576l-536940 0 0 -247478c-147227,185281 -329389,277922 -546486,277922 -217034,0 -399196,-62821 -546422,-188463 -147227,-125704 -220903,-293205 -220903,-502691 0,-209424 76171,-366195 228513,-470314 152343,-104057 360518,-156086 624528,-156086l426521 0 0 -11416c0,-218407 -115536,-327517 -346544,-327517 -99004,0 -203747,19651 -314167,59016 -110420,39302 -203747,88211 -279918,146602l-255088 -369376c269062,-195512 576304,-293268 921538,-293268 248788,0 451849,62259 609306,186653 157396,124394 236062,321154 236062,590217l0 1306199zm-574995 -780675l0 -99004 -357960 0c-228513,0 -342739,71056 -342739,213229 0,73676 27325,130134 81848,169498 54649,39364 132629,59015 234191,59015 101561,0 191082,-31067 268501,-93264 77419,-62259 116159,-145417 116159,-249474zm2288625 -1302394c238682,0 451287,99690 637878,299007 186654,199255 279918,449915 279918,752041 0,302127 -93264,554720 -279918,757843 -186591,203123 -404935,304622 -654971,304622 -250098,0 -451287,-100252 -603629,-300817l0 1009126 -571189 0 0 -2787511 571189 0 0 228451c175175,-175175 382103,-262762 620722,-262762zm-628333 1060593c0,166316 46351,302126 138992,407431 92703,105429 204994,158081 337062,158081 132004,0 247540,-52652 346544,-158081 99003,-105305 148474,-240491 148474,-405560 0,-165006 -48223,-303374 -144669,-415041 -96508,-111730 -211981,-167564 -346544,-167564 -134563,0 -248164,55210 -340867,165630 -92641,110482 -138992,248850 -138992,415104zm2970359 -1639393c474744,0 839067,116159 1092971,348478 253841,232256 380730,555343 380730,969137 0,413795 -123708,741311 -371248,982489 -247540,241177 -625152,361765 -1132896,361765l-910185 0 0 -2661869 940628 0zm30444 2136345c271683,0 480482,-68560 626461,-205618 145979,-137120 218969,-336375 218969,-597890 0,-261514 -72990,-462703 -218969,-603629 -145979,-140863 -370063,-211295 -672189,-211295l-331260 0 0 1618432 376988 0zm2977970 -1020605c-170122,0 -297074,60326 -380856,180914 -83719,120589 -125641,279918 -125641,477925l0 887290 -571252 0 0 -2048758 571252 0 0 270373c73613,-83782 165630,-154900 276112,-213291 110420,-58329 222774,-88773 336999,-91393l3806 536940 -110420 0zm913927 521781c0,167502 47662,303998 142798,409303 95198,105429 217097,158081 365571,158081 148537,0 270435,-52652 365571,-158081 95261,-105305 142797,-241801 142797,-409303 0,-167626 -47536,-304684 -142797,-411298 -95136,-106615 -217034,-159953 -365571,-159953 -148474,0 -270373,53338 -365571,159953 -95136,106614 -142798,243672 -142798,411298zm1591794 0c0,297011 -102809,547047 -308427,750170 -205680,203123 -463951,304622 -774998,304622 -310985,0 -569256,-101499 -774874,-304622 -205680,-203123 -308489,-453159 -308489,-750170 0,-297073 102809,-547732 308489,-752103 205618,-204370 463889,-306618 774874,-306618 311047,0 569318,102248 774998,306618 205618,204371 308427,455030 308427,752103zm993905 1024348l-571189 0 0 -2048758 571189 0 0 2048758zm-523590 -2309648c-64755,-64693 -97070,-144045 -97070,-237996 0,-93950 32315,-173241 97070,-237995 64754,-64693 144107,-97132 237995,-97132 93951,0 173303,32439 238058,97132 64692,64754 97070,144045 97070,237995 0,93951 -32378,173303 -97070,237996 -64755,64754 -144107,97132 -238058,97132 -93888,0 -173241,-32378 -237995,-97132zm1885062 2340092c-242488,0 -458898,-102809 -649295,-308428 -190396,-205680 -285657,-460769 -285657,-765453 0,-304622 92703,-554096 278046,-748298 185281,-194202 402378,-291334 651166,-291334 248788,0 451911,87587 609306,262762l0 -1005321 571190 0 0 2825628 -571190 0 0 -270373c-159953,200565 -361142,300817 -603566,300817zm-359895 -1051049c0,165069 49533,300255 148537,405560 99004,105429 214539,158081 346544,158081 132005,0 244359,-52652 336999,-158081 92641,-105305 138992,-241115 138992,-407431 0,-166254 -46351,-304622 -138992,-415104 -92640,-110420 -206242,-165630 -340804,-165630 -134563,0 -250098,55834 -346607,167564 -96383,111667 -144669,250035 -144669,415041z"/>
 </g>
</svg>
