<?xml version="1.0" encoding="UTF-8"?>
<!DOCTYPE svg PUBLIC "-//W3C//DTD SVG 1.1//EN" "http://www.w3.org/Graphics/SVG/1.1/DTD/svg11.dtd">
<!-- Creator: CorelDRAW X7 -->
<svg xmlns="http://www.w3.org/2000/svg" xml:space="preserve" width="979px" height="512px" version="1.1" style="shape-rendering:geometricPrecision; text-rendering:geometricPrecision; image-rendering:optimizeQuality; fill-rule:evenodd; clip-rule:evenodd"
viewBox="0 0 14595697 7609998"
 xmlns:xlink="http://www.w3.org/1999/xlink">
 <defs>
  <style type="text/css">
   <![CDATA[
    .fil0 {fill:none}
    .fil3 {fill:#1E83D3;fill-rule:nonzero}
    .fil1 {fill:url(#id0)}
    .fil2 {fill:url(#id1)}
   ]]>
  </style>
  <linearGradient id="id0" gradientUnits="userSpaceOnUse" x1="2.24766e+006" y1="1.71335e+006" x2="5.36247e+006" y2="5.2685e+006">
   <stop offset="0" style="stop-opacity:1; stop-color:#1DC8DC"/>
   <stop offset="1" style="stop-opacity:1; stop-color:#1E83D3"/>
  </linearGradient>
  <linearGradient id="id1" gradientUnits="userSpaceOnUse" xlink:href="#id0" x1="2.64136e+006" y1="3.12832e+006" x2="4.96873e+006" y2="5.0564e+006">
  </linearGradient>
 </defs>
 <g id="Layer_x0020_1">
  <metadata id="CorelCorpID_0Corel-Layer"/>
  <rect class="fil0" x="19" y="-10" width="14595659" height="7610024"/>
  <g id="_2705277020080">
   <path class="fil1" d="M3948459 1847975c434010,31351 828931,203800 1139025,471788l307909 -307908c56011,-56011 146783,-56011 202794,0 56011,56011 56011,146827 0,202794l-307908 307909c267988,310094 440437,705014 471788,1139024l435453 0c79229,0 143416,64232 143416,143417 0,79185 -64187,143417 -143416,143417l-435453 0c-31351,434010 -203800,828886 -471744,1138981l307864 307908c56011,56011 56011,146827 0,202838 -56011,56012 -146783,56012 -202794,0l-307909 -307908c-232527,200958 -512801,348179 -821453,422467l723379 -723379 -87 -88c303098,-303055 490633,-721717 490633,-1184236 0,-925037 -749876,-1674913 -1674913,-1674913 -924993,0 -1674870,749876 -1674870,1674913 0,462519 187535,881137 490677,1184236l-131 88 723379 723379c-308695,-74288 -588926,-221509 -821453,-422467l-307908 307908c-56012,56012 -146827,56012 -202839,0 -55967,-56011 -55967,-146827 44,-202794l307909 -307908c-268032,-310095 -440438,-705015 -471789,-1139025l-435496 0c-79185,0 -143373,-64232 -143373,-143417 0,-79185 64188,-143417 143373,-143417l435496 0c31351,-434010 203757,-828886 471745,-1138981l-307909 -307908c-55967,-56011 -55967,-146827 0,-202838 56012,-56011 146827,-56011 202839,0l307908 307908c310051,-267988 704971,-440437 1138981,-471788l0 -435453c0,-79185 64232,-143417 143417,-143417 79229,0 143416,64232 143416,143417l0 435453z"/>
   <path class="fil2" d="M3805043 2417444c633438,43 1167752,424522 1333993,1004484 -676726,550624 -1923313,-608209 -2623868,-129075 203800,-512801 704490,-875366 1289875,-875409zm1380822 1250216c4459,45168 6777,90991 6777,137339 0,51158 -2799,101616 -8177,151375 -694215,672964 -2066991,-689799 -2760244,-14036 -4416,-45168 -6690,-90991 -6690,-137339 0,-51201 2842,-101703 8264,-151462 694215,-672746 2066860,689799 2760070,14123zm-90816 649441c-70441,177216 -176254,336461 -308827,469034l-981179 981135 -981092 -981135c-164055,-164011 -287183,-368905 -352857,-598065 676769,-550623 1923356,608252 2623955,129031z"/>
  </g>
  <path class="fil3" d="M8004394 2732261c-37254,0 -66637,8876 -88149,26540 -21512,17665 -32269,41058 -32269,70222 0,29164 13161,52338 39440,69566 26278,17227 86968,37516 182069,60908 95145,23437 168952,58547 221552,105376 52557,46873 78836,115215 78836,205069 0,89854 -33712,162699 -101092,218622 -67379,55924 -156052,83908 -265976,83908 -158676,0 -301525,-58810 -428676,-176385l133317 -163442c108043,94619 207910,141929 299688,141929 41101,0 73369,-8832 96762,-26497 23437,-17664 35155,-41582 35155,-71664 0,-30126 -12418,-54044 -37341,-71708 -24836,-17709 -74026,-35636 -147614,-53782 -116614,-27721 -201920,-63794 -255920,-108262 -54044,-44424 -81022,-114208 -81022,-209353 0,-95057 34149,-168427 102534,-220066 68298,-51595 153649,-77392 255920,-77392 66899,0 133797,11456 200696,34411 66942,22912 125227,55399 174942,97462l-113290 163486c-86969,-65980 -176822,-98948 -269562,-98948zm-40139 1325816c178746,0 315910,43724 411491,131174 95626,87449 143417,209090 143417,364925 0,155747 -46654,279094 -139831,369910 -93177,90772 -235369,136158 -426533,136158l-342670 0 0 -1002167 354126 0zm11499 804357c102228,0 180889,-25841 235850,-77436 54962,-51639 82465,-126670 82465,-225094 0,-98468 -27503,-174243 -82465,-227324 -54961,-52995 -139306,-79535 -253077,-79535l-124747 0 0 609389 141974 0zm1121229 -384252c-64056,0 -111847,22694 -143416,68080 -31526,45386 -47310,105376 -47310,179926l0 334056 -215082 0 0 -771345 215082 0 0 101791c27721,-31526 62351,-58329 103977,-80279 41538,-21993 83863,-33449 126845,-34411l1442 202182 -41538 0zm344069 196411c0,63095 17927,114471 53781,154086 35854,39745 81721,59509 137601,59509 55924,0 101835,-19764 137645,-59509 35854,-39615 53781,-90991 53781,-154086 0,-63094 -17927,-114689 -53781,-154828 -35810,-40183 -81721,-60253 -137645,-60253 -55880,0 -101747,20070 -137601,60253 -35854,40139 -53781,91734 -53781,154828zm599289 0c0,111848 -38697,205987 -116089,282461 -77436,76474 -174723,114689 -291818,114689 -117051,0 -214294,-38215 -291730,-114689 -77436,-76474 -116133,-170613 -116133,-282461 0,-111891 38697,-206249 116133,-283160 77436,-76955 174679,-115433 291730,-115433 117095,0 214382,38478 291818,115433 77392,76911 116089,171269 116089,283160zm374238 385651l-215081 0 0 -771345 215081 0 0 771345zm-197154 -869594c-24398,-24355 -36554,-54175 -36554,-89548 0,-35417 12156,-65237 36554,-89679 24398,-24355 54262,-36510 89635,-36510 35330,0 65238,12155 89592,36510 24355,24442 36554,54262 36554,89679 0,35373 -12199,65193 -36554,89548 -24354,24442 -54262,36597 -89592,36597 -35373,0 -65237,-12155 -89635,-36597zm709737 881093c-91253,0 -172799,-38740 -244464,-116132 -71664,-77436 -107562,-173455 -107562,-288189 0,-114733 34936,-208653 104676,-281761 69785,-73151 151506,-109661 245208,-109661 93658,0 170132,32968 229379,98905l0 -378524 215081 0 0 1063863 -215081 0 0 -101747c-60209,75468 -135940,113246 -227237,113246zm-135458 -395751c0,62133 18582,113072 55880,152687 37297,39745 80803,59509 130474,59509 49714,0 91996,-19764 126888,-59509 34849,-39615 52339,-90773 52339,-153386 0,-62570 -17490,-114690 -52339,-156272 -34892,-41582 -77655,-62395 -128331,-62395 -50633,0 -94139,21032 -130474,63139 -36292,42019 -54437,94095 -54437,156227zm-1548506 -1226823c-86968,82158 -189021,123303 -306116,123303 -117094,0 -213856,-36117 -290331,-108262 -76474,-72189 -114689,-168996 -114689,-290375 0,-121379 38915,-217923 116832,-289588 77917,-71664 169913,-107562 275989,-107562 106076,0 196192,32050 270306,96106 74069,64057 111104,151987 111104,263791l0 114733 -562036 0c6690,42019 28640,76430 65937,103190 37297,26759 79360,40139 126189,40139 75512,0 137601,-25316 186354,-75993l120461 130518zm-154829 -351327c-4809,-45867 -21993,-81241 -51638,-106076 -29646,-24836 -65718,-37253 -108262,-37253 -42544,0 -81459,12898 -116832,38696 -35374,25841 -55924,60733 -61652,104633l338384 0zm1027965 463130l-202139 0 0 -93177c-55442,69785 -124046,104677 -205768,104677 -81721,0 -150325,-23699 -205724,-70965 -55442,-47354 -83164,-110448 -83164,-189284 0,-78835 28684,-137907 86050,-177084 57367,-39177 135678,-58766 235107,-58766l160557 0 0 -4285c0,-82246 -43462,-123347 -130474,-123347 -37254,0 -76693,7433 -118275,22256 -41539,14822 -76693,33187 -105376,55180l-96020 -139044c101266,-73632 216962,-110448 346955,-110448 93658,0 170132,23436 229379,70265 59290,46873 88892,120942 88892,222252l0 491770zm-216480 -293916l0 -37254 -134803 0c-86006,0 -129031,26716 -129031,80279 0,27721 10275,48971 30869,63794 20551,14779 49890,22212 88149,22212 38259,0 71927,-11718 101091,-35111 29164,-23436 43725,-54743 43725,-93920zm1331937 -336942l-270961 547694 -133316 0 -269562 -547694 0 630858 -223651 0 0 -1002210 302486 0 258107 550579 259505 -550579 301087 0 0 1002210 -223695 0 0 -630858zm1104046 630858l-202183 0 0 -93177c-55443,69785 -124046,104677 -205768,104677 -81677,0 -150325,-23699 -205724,-70965 -55442,-47354 -83164,-110448 -83164,-189284 0,-78835 28683,-137907 86050,-177084 57323,-39177 135721,-58766 235151,-58766l160556 0 0 -4285c0,-82246 -43506,-123347 -130517,-123347 -37254,0 -76650,7433 -118275,22256 -41539,14822 -76693,33187 -105377,55180l-96019 -139044c101310,-73632 216962,-110448 346955,-110448 93701,0 170132,23436 229379,70265 59290,46873 88936,120942 88936,222252l0 491770zm-216524 -293916l0 -37254 -134760 0c-86006,0 -129031,26716 -129031,80279 0,27721 10275,48971 30826,63794 20551,14779 49933,22212 88149,22212 38259,0 71927,-11718 101091,-35111 29120,-23436 43725,-54743 43725,-93920zm861679 -490371c89811,0 169914,37559 240180,112591 70265,74987 105332,169388 105332,283160 0,113727 -35067,208828 -105332,285303 -70266,76474 -152468,114733 -246607,114733 -94183,0 -169914,-37778 -227280,-113247l0 379879 -215038 0 0 -1049477 215038 0 0 85963c65980,-65937 143854,-98905 233707,-98905zm-236593 399336c0,62614 17490,113772 52338,153386 34936,39702 77218,59509 126889,59509 49758,0 93264,-19807 130518,-59509 37253,-39614 55923,-90554 55923,-152686 0,-62133 -18189,-114252 -54480,-156272 -36336,-42063 -79841,-63094 -130518,-63094 -50633,0 -93396,20813 -128332,62395 -34848,41582 -52338,93658 -52338,156271z"/>
 </g>
</svg>
