<?xml version="1.0" encoding="UTF-8"?>
<!DOCTYPE svg PUBLIC "-//W3C//DTD SVG 1.1//EN" "http://www.w3.org/Graphics/SVG/1.1/DTD/svg11.dtd">
<!-- Creator: CorelDRAW X7 -->
<svg xmlns="http://www.w3.org/2000/svg" xml:space="preserve" width="289px" height="256px" version="1.1" style="shape-rendering:geometricPrecision; text-rendering:geometricPrecision; image-rendering:optimizeQuality; fill-rule:evenodd; clip-rule:evenodd"
viewBox="0 0 9334682 8278929"
 xmlns:xlink="http://www.w3.org/1999/xlink">
 <defs>
  <style type="text/css">
   <![CDATA[
    .fil0 {fill:url(#id0)}
    .fil1 {fill:url(#id1)}
   ]]>
  </style>
  <linearGradient id="id0" gradientUnits="userSpaceOnUse" x1="1.80088e+006" y1="817580" x2="7.5338e+006" y2="7.36094e+006">
   <stop offset="0" style="stop-opacity:1; stop-color:#1DC8DC"/>
   <stop offset="1" style="stop-opacity:1; stop-color:#1E83D3"/>
  </linearGradient>
  <linearGradient id="id1" gradientUnits="userSpaceOnUse" xlink:href="#id0" x1="2.5256e+006" y1="3.42192e+006" x2="6.80912e+006" y2="6.97054e+006">
  </linearGradient>
 </defs>
 <g id="Layer_x0020_1">
  <metadata id="CorelCorpID_0Corel-Layer"/>
  <g id="_1911116792368">
   <path class="fil0" d="M4931295 1065417c798813,57704 1525645,375091 2096386,868301l566689 -566688c103063,-103094 270189,-103094 373283,0 103062,103062 103062,270220 -31,373251l-566689 566720c493242,570710 810628,1297542 868332,2096386l801464 0c145771,0 263953,118183 263953,263954 0,145772 -118182,263954 -263953,263923l-801464 0c-57704,798813 -375090,1525645 -868301,2096386l566689 566689c103062,103094 103062,270251 0,373314 -103094,103094 -270189,103062 -373283,-31l-566689 -566689c-427993,369916 -943805,640852 -1511928,777584l1331366 -1331398 -156 -156c557898,-557804 903061,-1328342 903061,-2179622 0,-1702529 -1380154,-3082683 -3082683,-3082683 -1702529,0 -3082683,1380154 -3082683,3082683 0,851280 345195,1621787 903092,2179591l-187 187 1331366 1331398c-568122,-136732 -1083903,-407668 -1511928,-777553l-566689 566689c-103062,103094 -270189,103094 -373282,0 -103063,-103063 -103063,-270220 31,-373252l566688 -566720c-493241,-570710 -810628,-1297541 -868332,-2096386l-801463 0c-145772,0 -263954,-118182 -263954,-263954 0,-145771 118182,-263954 263954,-263922l801463 0c57704,-798814 375091,-1525646 868301,-2096387l-566688 -566689c-103063,-103093 -103063,-270251 0,-373313 103093,-103094 270188,-103063 373282,31l566689 566688c570710,-493241 1297573,-810628 2096386,-868332l0 -801463c0,-145772 118183,-263954 263954,-263954 145772,0 263954,118182 263954,263954l0 801463z"/>
   <path class="fil1" d="M4667341 2113532c1165830,32 2149196,781294 2455204,1848800 -1245543,1013387 -3539887,-1119474 -4829292,-237643 375122,-943806 1296669,-1611125 2374088,-1611157zm2541402 2301016c8198,83173 12438,167469 12438,252793 0,94147 -5112,187047 -15057,278575 -1277653,1238653 -3804277,-1269516 -5080215,-25781 -8168,-83174 -12377,-167501 -12377,-252794 0,-94209 5269,-187171 15214,-278730 1277714,-1238217 3804090,1269578 5079997,25937zm-167189 1195321c-129592,326178 -324401,619280 -568403,863282l-1805810 1805778 -1805778 -1805778c-301893,-301893 -528500,-679010 -649426,-1100800 1245605,-1013387 3539981,1119567 4829417,237518z"/>
  </g>
 </g>
</svg>
