<?xml version="1.0" encoding="UTF-8"?>
<!DOCTYPE svg PUBLIC "-//W3C//DTD SVG 1.1//EN" "http://www.w3.org/Graphics/SVG/1.1/DTD/svg11.dtd">
<!-- Creator: CorelDRAW X7 -->
<svg xmlns="http://www.w3.org/2000/svg" xml:space="preserve" width="289px" height="256px" version="1.1" style="shape-rendering:geometricPrecision; text-rendering:geometricPrecision; image-rendering:optimizeQuality; fill-rule:evenodd; clip-rule:evenodd"
viewBox="0 0 13486146 11969633"
 xmlns:xlink="http://www.w3.org/1999/xlink">
 <defs>
  <style type="text/css">
   <![CDATA[
    .fil2 {fill:#1E83D3;fill-rule:nonzero}
    .fil0 {fill:url(#id0)}
    .fil1 {fill:url(#id1)}
   ]]>
  </style>
  <linearGradient id="id0" gradientUnits="userSpaceOnUse" x1="3.9831e+006" y1="787208" x2="9.50304e+006" y2="7.08748e+006">
   <stop offset="0" style="stop-opacity:1; stop-color:#1DC8DC"/>
   <stop offset="1" style="stop-opacity:1; stop-color:#1E83D3"/>
  </linearGradient>
  <linearGradient id="id1" gradientUnits="userSpaceOnUse" xlink:href="#id0" x1="4.68089e+006" y1="3.2948e+006" x2="8.80528e+006" y2="6.71159e+006">
  </linearGradient>
 </defs>
 <g id="Layer_x0020_1">
  <metadata id="CorelCorpID_0Corel-Layer"/>
  <g id="_1911116786416">
   <g>
    <path class="fil0" d="M6997221 1025837c769138,55560 1468968,361156 2018507,836044l545636 -545636c99234,-99264 260152,-99264 359415,0 99234,99234 99234,260181 -30,359385l-545636 545667c474918,549508 780514,1249338 836074,2018506l771689 0c140357,0 254149,113792 254149,254148 0,140357 -113792,254148 -254149,254118l-771689 0c-55560,769138 -361156,1468968 -836044,2018507l545636 545636c99234,99264 99234,260212 0,359446 -99263,99264 -260151,99234 -359415,-30l-545636 -545637c-412094,356174 -908744,617045 -1455761,748697l1281906 -1281936 -150 -151c537172,-537081 869513,-1278994 869513,-2098650 0,-1639280 -1328882,-2968162 -2968163,-2968162 -1639280,0 -2968162,1328882 -2968162,2968162 0,819656 332370,1561539 869542,2098620l-180 181 1281906 1281936c-547017,-131652 -1043637,-392523 -1455760,-748667l-545637 545637c-99234,99264 -260151,99264 -359415,0 -99234,-99234 -99234,-260182 30,-359386l545636 -545666c-474918,-549509 -780514,-1249339 -836074,-2018507l-771689 0c-140356,0 -254148,-113791 -254148,-254148 0,-140356 113792,-254148 254148,-254118l771689 0c55560,-769138 361156,-1468968 836044,-2018506l-545636 -545637c-99234,-99264 -99234,-260211 0,-359445 99264,-99264 260151,-99234 359415,30l545637 545636c549508,-474918 1249368,-780514 2018506,-836074l0 -771689c0,-140356 113792,-254148 254148,-254148 140356,0 254148,113792 254148,254148l0 771689z"/>
    <path class="fil1" d="M6743073 2035016c1122520,30 2069354,752268 2363994,1780117 -1199271,975740 -3408381,-1077886 -4649886,-228815 361187,-908743 1248499,-1551272 2285892,-1551302zm2446990 2215533c7894,80084 11976,161248 11976,243402 0,90650 -4923,180098 -14498,268226 -1230188,1192638 -3662950,-1222354 -4891487,-24823 -7864,-80084 -11917,-161278 -11917,-243403 0,-90709 5073,-180218 14648,-268375 1230249,-1192218 3662770,1222414 4891278,24973zm-160978 1150915c-124778,314061 -312350,596274 -547287,831212l-1738725 1738694 -1738694 -1738694c-290678,-290678 -508867,-653785 -625300,-1059906 1199331,-975740 3408472,1077976 4650006,228694z"/>
   </g>
   <path class="fil2" d="M550559 10424003c-52048,0 -93080,12367 -123127,37070 -30016,24673 -45054,57391 -45054,98063 0,40732 18400,73090 55080,97133 36710,24013 121446,52379 254268,85066 132822,32718 235898,81765 309348,147170 73390,65406 110100,160828 110100,286296 0,125468 -47036,227223 -141167,305326 -94071,78072 -217888,117123 -371392,117123 -221550,0 -421099,-82094 -598615,-246284l186191 -228214c150832,132132 290318,198198 418427,198198 57422,0 102476,-12337 135134,-37040 32718,-24673 49077,-58052 49077,-100074 0,-42053 -17350,-75461 -52079,-100135 -34669,-24673 -103406,-49707 -206182,-75071 -162838,-38721 -281973,-89088 -357374,-151162 -75401,-62073 -113131,-159506 -113131,-292328 0,-132793 47726,-235238 143147,-307307 95452,-72070 214557,-108119 357375,-108119 93440,0 186851,16029 280292,48056 93441,32057 174845,77412 244273,136154l-158186 228214c-121446,-92060 -246915,-138135 -376405,-138135zm1729840 1001074c-121446,114782 -263934,172173 -427432,172173 -163529,0 -298663,-50367 -405431,-151162 -106798,-100795 -160197,-235928 -160197,-405430 0,-169502 54390,-304305 163199,-404410 108779,-100104 237249,-150171 385409,-150171 148131,0 273929,44724 377395,134142 103437,89449 155155,212246 155155,368391l0 160167 -784837 0c9365,58711 40042,106798 92120,144138 52049,37370 110791,56070 176166,56070 105447,0 192194,-35359 260271,-106107l168182 182199zm-216238 -490527c-6663,-64085 -30676,-113431 -72069,-148160 -41362,-34699 -91730,-52049 -151132,-52049 -59402,0 -113792,18010 -163199,54060 -49376,36049 -78072,84736 -86086,146149l472486 0zm1435500 646672l-282273 0 0 -130121c-77442,97433 -173194,146149 -287316,146149 -114122,0 -209904,-33048 -287286,-99114 -77412,-66065 -116133,-154163 -116133,-264263 0,-110100 40041,-192555 120125,-247275 80083,-54719 189523,-82064 328348,-82064l224222 0 0 -6003c0,-114813 -60723,-172204 -182199,-172204 -52048,0 -107098,10356 -165150,31037 -58051,20681 -107098,46375 -147170,77082l-134112 -194206c141466,-102775 302984,-154163 484493,-154163 130811,0 237579,32717 320334,98123 82755,65405 124117,168812 124117,310308l0 686714zm-302324 -410443l0 -52019 -188172 0c-120126,0 -180188,37341 -180188,112081 0,38721 14348,68437 43043,89119 28696,20681 69728,31006 123127,31006 53399,0 100465,-16328 141137,-49016 40732,-32718 61053,-76452 61053,-131171zm1859960 -470476l-378385 764785 -186191 0 -376405 -764785 0 880919 -312319 0 0 -1399451 422449 0 360376 768808 362387 -768808 420438 0 0 1399451 -312350 0 0 -880919zm1541608 880919l-282303 0 0 -130121c-77413,97433 -173165,146149 -287287,146149 -114122,0 -209904,-33048 -287286,-99114 -77412,-66065 -116133,-154163 -116133,-264263 0,-110100 40042,-192555 120126,-247275 80083,-54719 189522,-82064 328318,-82064l224252 0 0 -6003c0,-114813 -60723,-172204 -182199,-172204 -52049,0 -107098,10356 -165180,31037 -58052,20681 -107068,46375 -147140,77082l-134113 -194206c141467,-102775 302985,-154163 484493,-154163 130811,0 237579,32717 320334,98123 82755,65405 124118,168812 124118,310308l0 686714zm-302324 -410443l0 -52019 -188173 0c-120125,0 -180187,37341 -180187,112081 0,38721 14347,68437 43043,89119 28695,20681 69728,31006 123127,31006 53399,0 100434,-16328 141136,-49016 40733,-32718 61054,-76452 61054,-131171zm1203263 -684702c125468,0 237249,52408 335373,157195 98093,104727 147139,236558 147139,395375 0,158846 -49046,291638 -147139,398436 -98124,106798 -212906,160167 -344378,160167 -131471,0 -237248,-52708 -317332,-158156l0 530539 -300313 0 0 -1465547 300313 0 0 120126c92090,-92090 200869,-138135 326337,-138135zm-330329 557582c0,87438 24343,158847 73060,214227 48746,55410 107788,83085 177186,83085 69428,0 130151,-27675 182199,-83085 52048,-55380 78072,-126459 78072,-213236 0,-86747 -25334,-159477 -76061,-218188 -50728,-58742 -111451,-88128 -182199,-88128 -70719,0 -130451,29055 -179197,87107 -48717,58082 -73060,130811 -73060,218218zm1561628 -861888c249586,0 441120,61053 574602,183190 133483,122106 200209,291968 200209,509527 0,217558 -65045,389731 -195196,516550 -130151,126789 -328678,190184 -595613,190184l-478520 0 0 -1399451 494518 0zm15999 1123180c142817,0 252617,-36049 329369,-108118 76752,-72069 115112,-176856 115112,-314331 0,-137505 -38360,-243252 -115112,-317362 -76752,-74051 -194566,-111091 -353382,-111091l-174185 0 0 850902 198198 0zm1565650 -536571c-89418,0 -156144,31697 -200208,95092 -44034,63394 -66066,147170 -66066,251266l0 466484 -300313 0 0 -1077136 300313 0 0 142188c38691,-44064 87077,-81465 145159,-112141 58051,-30707 117123,-46706 177186,-48056l1981 282303 -58052 0zm480501 274289c0,88098 25064,159837 75101,215217 50037,55410 114092,83085 192195,83085 78072,0 142157,-27675 192194,-83085 50067,-55380 75071,-127119 75071,-215217 0,-88098 -25004,-160167 -75071,-216207 -50037,-56071 -114122,-84106 -192194,-84106 -78103,0 -142158,28035 -192195,84106 -50037,56040 -75101,128109 -75101,216207zm836885 0c0,156175 -54059,287616 -162178,394414 -108089,106798 -243912,160167 -407411,160167 -163499,0 -299293,-53369 -407412,-160167 -108118,-106798 -162178,-238239 -162178,-394414 0,-156145 54060,-287976 162178,-395405 108119,-107458 243913,-161187 407412,-161187 163499,0 299322,53729 407411,161187 108119,107429 162178,239260 162178,395405zm522554 538553l-300313 0 0 -1077136 300313 0 0 1077136zm-275280 -1214280c-34038,-34039 -51057,-75731 -51057,-125108 0,-49407 17019,-91130 51057,-125138 34039,-34039 75732,-51058 125108,-51058 49407,0 91130,17019 125138,51058 34039,34008 51058,75731 51058,125138 0,49377 -17019,91069 -51058,125108 -34008,34068 -75731,51058 -125138,51058 -49376,0 -91069,-16990 -125108,-51058zm991049 1230308c-127449,0 -241241,-54059 -341376,-162178 -100104,-108119 -150141,-242231 -150141,-402428 0,-160167 48716,-291309 146149,-393394 97433,-102116 211555,-153173 342366,-153173 130811,0 237579,46045 320334,138135l0 -528527 300313 0 0 1485537 -300313 0 0 -142128c-84075,105448 -189853,158156 -317332,158156zm-189193 -552600c0,86777 26024,157856 78072,213236 52049,55410 112802,83085 182199,83085 69398,0 128470,-27675 177187,-83085 48716,-55380 73059,-126789 73059,-214227 0,-87407 -24343,-160136 -73059,-218218 -48717,-58052 -108449,-87107 -179198,-87107 -70718,0 -131471,29386 -182199,88128 -50697,58711 -76061,131441 -76061,218188z"/>
  </g>
 </g>
</svg>
