<?xml version="1.0" encoding="UTF-8"?>
<!DOCTYPE svg PUBLIC "-//W3C//DTD SVG 1.1//EN" "http://www.w3.org/Graphics/SVG/1.1/DTD/svg11.dtd">
<!-- Creator: CorelDRAW X7 -->
<svg xmlns="http://www.w3.org/2000/svg" xml:space="preserve" width="192px" height="192px" version="1.1" style="shape-rendering:geometricPrecision; text-rendering:geometricPrecision; image-rendering:optimizeQuality; fill-rule:evenodd; clip-rule:evenodd"
viewBox="0 0 3684079 3684079"
 xmlns:xlink="http://www.w3.org/1999/xlink">
 <defs>
  <style type="text/css">
   <![CDATA[
    .fil0 {fill:none}
    .fil1 {fill:#4BA2F2}
    .fil2 {fill:white}
   ]]>
  </style>
   <clipPath id="id0">
    <path d="M377518 377088l2974822 0 0 2974821 -2974822 0 0 -2974821z"/>
   </clipPath>
 </defs>
 <g id="Layer_x0020_1">
  <metadata id="CorelCorpID_0Corel-Layer"/>
  <rect class="fil0" width="3684079" height="3684079"/>
  <g style="clip-path:url(#id0)">
   <image x="377518" y="377088" width="2974822" height="2974822" xlink:href="seamapdroid_icon_Images\seamapdroid_icon_ImgID1.png"/>
  </g>
  <rect class="fil1" x="383762" y="383762" width="2916555" height="2916555" rx="230272" ry="230272"/>
  <g id="_2354757135392">
   <path class="fil2" d="M1905337 1104975c191547,13847 365802,89949 502640,208203l135887 -135886c24703,-24703 64771,-24703 89496,0 24702,24725 24702,64793 0,89496l-135887 135886c118278,136839 194380,311094 208204,502640l192159 0c34946,0 63297,28329 63297,63275 0,34969 -28351,63298 -63297,63298l-192159 0c-13824,191524 -89926,365801 -208181,502640l135864 135864c24702,24725 24702,64793 0,89518 -24725,24703 -64771,24703 -89496,-22l-135887 -135864c-102617,88702 -226289,153654 -362493,186447l319207 -319229 -22 -46c133756,-133733 216521,-318481 216521,-522606 0,-408204 -330924,-739105 -739128,-739105 -408204,0 -739127,330901 -739127,739105 0,204125 82765,388850 216521,522606l-45 46 319229 319229c-136226,-32793 -259875,-97745 -362515,-186447l-135864 135886c-24726,24703 -64794,24703 -89496,0 -24725,-24725 -24725,-64793 0,-89495l135864 -135887c-118255,-136839 -194357,-311094 -208181,-502640l-192182 0c-34946,0 -63274,-28329 -63274,-63298 0,-34946 28328,-63275 63274,-63275l192182 0c13824,-191524 89926,-365801 208181,-502640l-135864 -135864c-24725,-24725 -24725,-64793 0,-89518 24702,-24703 64770,-24703 89496,22l135864 135864c136838,-118254 311116,-194356 502640,-208203l0 -192159c0,-34946 28351,-63298 63297,-63298 34946,0 63275,28352 63275,63298l0 192159z"/>
   <path class="fil2" d="M1842062 1356283c279524,0 515309,187332 588669,443286 -298629,242969 -848748,-268419 -1157892,-56997 89926,-226289 310889,-386289 569223,-386289zm609337 551706c1972,19943 2992,40158 2992,60600 0,22572 -1224,44850 -3626,66810 -306334,296975 -912136,-304385 -1218062,-6187 -1949,-19943 -2969,-40158 -2969,-60623 0,-22572 1269,-44872 3648,-66810 306357,-296884 912091,304385 1218017,6210zm-40090 286595c-31071,78209 -77779,148487 -136272,206980l-432975 432974 -432974 -432974c-72385,-72386 -126708,-162788 -155694,-263932 298651,-242969 848748,268442 1157915,56952z"/>
  </g>
 </g>
</svg>
